# xmcd CD database file
#
# Track frame offsets:
#	187
#	16147
#	41300
#	62897
#	79177
#	103307
#	118622
#	139477
#
# Disc length: 2083 seconds
#
# Revision: 0
# Processed by: cddbd v1.5PL3 Copyright (c) Steve Scherf et al.
# Submitted via: CDex 1.50Beta6
#
DISCID=6a082108
DTITLE=Various Artist - RED ALERT RECORDS COMPILATION 1
DYEAR=1900
DGENRE=Techno
TTITLE0=NEW RALLY X '96
TTITLE1=WE HATE ALL
TTITLE2=バビロン5
TTITLE3=LET'S GO COOL J
TTITLE4=IT'S FOR MY EGO
TTITLE5=HAVE A NICE DEATH
TTITLE6=35
TTITLE7=広場
EXTD=
EXTT0=
EXTT1=
EXTT2=
EXTT3=
EXTT4=
EXTT5=
EXTT6=
EXTT7=
PLAYORDER=
